# xmcd
#
# Track frame offsets:
#	150
#	8347
#	28122
#	48243
#	68444
#	87736
#	108539
#	127175
#	149443
#	172702
#	192066
#	217420
#
# Disc length: 2985 seconds
#
# Revision: 0
# Processed by: cddbd v1.5.2PL0 Copyright (c) Steve Scherf et al.
# Submitted via: EZCDAudioConverter 7.0.9.1
#
DISCID=a60ba70c
DTITLE=Tony Joe White - The Heroines
DYEAR=2004
DGENRE=Blues
TTITLE0=Tony Joe White - Gabriella
TTITLE1=Tony Joe White and Shelby Lynne - Can't Go Back Home
TTITLE2=Tony Joe White - Ice Cream Man
TTITLE3=Tony Joe White and Lucinda Williams - Closing In On The Fire
TTITLE4=Tony Joe White - Black Porch Therapy
TTITLE5=Tony Joe White and Michelle White - Playa Del Carmen Nights
TTITLE6=Tony Joe White and Emmylou Harris - Wild Wolf Calling Me
TTITLE7=Tony Joe White - Rich Woman Blues
TTITLE8=Tony Joe White - Robbin' My Honeycomb
TTITLE9=Tony Joe White and Jessi Colter - Fire Flies In The Storm
TTITLE10=Tony Joe White - Chaos Boogie
TTITLE11=Tony Joe White - Gabriella's Affair
EXTD=
EXTT0=
EXTT1=
EXTT2=
EXTT3=
EXTT4=
EXTT5=
EXTT6=
EXTT7=
EXTT8=
EXTT9=
EXTT10=
EXTT11=
PLAYORDER=
